<?xml version="1.0" encoding="UTF-8"?>
<svg version="1.1" xmlns="http://www.w3.org/2000/svg" width="48" height="48">
<path d="M0 0 C3.57114238 2.45953678 3.94571605 5.86831232 4.8125 9.9375 C5.08707031 11.16339844 5.36164062 12.38929687 5.64453125 13.65234375 C6.01627575 17.15327818 5.69104659 18.08147558 4 21 C4.33 21.99 4.66 22.98 5 24 C7.31 24 9.62 24 12 24 C12 24.99 12 25.98 12 27 C12.66 27 13.32 27 14 27 C15.32 30.63 16.64 34.26 18 38 C14 42 14 42 10.05761719 42.45410156 C8.4705622 42.45347106 6.88341558 42.43103461 5.296875 42.390625 C4.45908508 42.38496521 3.62129517 42.37930542 2.75811768 42.37347412 C0.08815834 42.35112329 -2.58044787 42.30093098 -5.25 42.25 C-7.06248059 42.22993325 -8.87498226 42.21168278 -10.6875 42.1953125 C-15.12551959 42.15126294 -19.56253056 42.08224566 -24 42 C-24.10823773 39.75106046 -24.18569645 37.50062425 -24.25 35.25 C-24.29640625 33.99703125 -24.3428125 32.7440625 -24.390625 31.453125 C-24 28 -24 28 -22.11816406 25.58496094 C-19.82265541 23.86729817 -18.57738368 23.43849225 -15.75 23.25 C-14.5125 23.1675 -13.275 23.085 -12 23 C-12 22.34 -12 21.68 -12 21 C-11.34 21 -10.68 21 -10 21 C-10 20.01 -10 19.02 -10 18 C-10.66 18 -11.32 18 -12 18 C-12 16.35 -12 14.7 -12 13 C-12.66 13 -13.32 13 -14 13 C-13.7581864 5.86649874 -13.7581864 5.86649874 -10.375 2 C-6.47793027 -0.30937465 -4.45305923 -0.67215988 0 0 Z " fill="#9B7C74" transform="translate(24,6)"/>
<path d="M0 0 C0 1.98 0 3.96 0 6 C0.5775 5.7525 1.155 5.505 1.75 5.25 C4 5 4 5 6.25 6.3125 C8.96930236 10.48857148 8.25890125 14.08087631 8 19 C1.73 19 -4.54 19 -11 19 C-11.4951307 5.63147104 -11.4951307 5.63147104 -9.11328125 2.59375 C-5.98917822 0.23767969 -3.86232583 0 0 0 Z " fill="#8D989C" transform="translate(11,29)"/>
<path d="M0 0 C0.66 0.33 1.32 0.66 2 1 C2 1.66 2 2.32 2 3 C4.31 3 6.62 3 9 3 C9 3.99 9 4.98 9 6 C9.66 6 10.32 6 11 6 C12.32 9.63 13.64 13.26 15 17 C11 21 11 21 8.98535156 21.45410156 C7.94846191 21.42268066 7.94846191 21.42268066 6.890625 21.390625 C6.13652344 21.37773438 5.38242187 21.36484375 4.60546875 21.3515625 C3.82816406 21.31804688 3.05085938 21.28453125 2.25 21.25 C1.06083984 21.22292969 1.06083984 21.22292969 -0.15234375 21.1953125 C-2.10208348 21.14833082 -4.05119878 21.07659044 -6 21 C-7.31157516 18.37684968 -6.89649988 16.76966564 -6.5625 13.875 C-6.46066406 12.96492188 -6.35882812 12.05484375 -6.25390625 11.1171875 C-6.17011719 10.41851562 -6.08632813 9.71984375 -6 9 C-5.01 9 -4.02 9 -3 9 C-1.57741188 12.82320557 -0.75957724 15.91281305 -1 20 C-0.01 19.34 0.98 18.68 2 18 C2.25015873 14.41642759 2.25015873 14.41642759 2 11 C1.34 11 0.68 11 0 11 C-1.125 3.375 -1.125 3.375 0 0 Z " fill="#6085A0" transform="translate(27,27)"/>
<path d="M0 0 C0.99 0 1.98 0 3 0 C3.103125 0.639375 3.20625 1.27875 3.3125 1.9375 C3.539375 2.618125 3.76625 3.29875 4 4 C4.99 4.33 5.98 4.66 7 5 C7 5.66 7 6.32 7 7 C8.98 6.67 10.96 6.34 13 6 C12.67 8.64 12.34 11.28 12 14 C11.01 14 10.02 14 9 14 C9 17.96 9 21.92 9 26 C8.34 26 7.68 26 7 26 C6.96261719 25.31292969 6.92523437 24.62585938 6.88671875 23.91796875 C6.78810547 22.56638672 6.78810547 22.56638672 6.6875 21.1875 C6.62949219 20.29417969 6.57148438 19.40085937 6.51171875 18.48046875 C5.92467075 15.63485441 5.3814347 14.6403017 3 13 C1.68 13 0.36 13 -1 13 C-1.125 7.25 -1.125 7.25 0 5 C0.66 5 1.32 5 2 5 C2 4.01 2 3.02 2 2 C1.34 2 0.68 2 0 2 C0 1.34 0 0.68 0 0 Z " fill="#647986" transform="translate(12,22)"/>
<path d="M0 0 C0 0.66 0 1.32 0 2 C-1.98 2.99 -1.98 2.99 -4 4 C-3.67 4.66 -3.34 5.32 -3 6 C-1.02 5.67 0.96 5.34 3 5 C2.96519531 5.92232422 2.96519531 5.92232422 2.9296875 6.86328125 C2.91164063 7.67152344 2.89359375 8.47976562 2.875 9.3125 C2.84019531 10.51326172 2.84019531 10.51326172 2.8046875 11.73828125 C3.04039981 14.46782984 4.04901868 16.04901868 6 18 C6.04092937 20.33297433 6.04241723 22.66705225 6 25 C4.02 25.99 4.02 25.99 2 27 C-0.1021386 20.69358419 -1.17159876 14.51479628 1 8 C-0.98 8.33 -2.96 8.66 -5 9 C-5 8.34 -5 7.68 -5 7 C-6.32 6.67 -7.64 6.34 -9 6 C-9 4.68 -9 3.36 -9 2 C-3.375 0 -3.375 0 0 0 Z " fill="#485F6B" transform="translate(24,20)"/>
<path d="M0 0 C2 1.25 2 1.25 3 3 C2.67 4.32 2.34 5.64 2 7 C-1.63 6.67 -5.26 6.34 -9 6 C-9 8.31 -9 10.62 -9 13 C-10.65 13 -12.3 13 -14 13 C-13.7581864 5.86649874 -13.7581864 5.86649874 -10.375 2 C-6.47793027 -0.30937465 -4.45305923 -0.67215988 0 0 Z " fill="#1A1F22" transform="translate(24,6)"/>
<path d="M0 0 C4.875 1.75 4.875 1.75 6 4 C6.13677734 7.33736713 6.04283944 10.6585233 6 14 C2.04 14 -1.92 14 -6 14 C-6 12.35 -6 10.7 -6 9 C-6.33 8.01 -6.66 7.02 -7 6 C-6.34 6 -5.68 6 -5 6 C-5 6.66 -5 7.32 -5 8 C-4.34 8 -3.68 8 -3 8 C-3 9.32 -3 10.64 -3 12 C-1.68 12 -0.36 12 1 12 C1 9.03 1 6.06 1 3 C0.01 4.485 0.01 4.485 -1 6 C-1.042721 4.33388095 -1.04063832 2.66617115 -1 1 C-0.67 0.67 -0.34 0.34 0 0 Z " fill="#83969D" transform="translate(13,34)"/>
<path d="M0 0 C0.99 0.495 0.99 0.495 2 1 C2 1.66 2 2.32 2 3 C4.31 3 6.62 3 9 3 C9 3.99 9 4.98 9 6 C9.66 6 10.32 6 11 6 C11.33 7.65 11.66 9.3 12 11 C9.03 10.505 9.03 10.505 6 10 C6.66 11.32 7.32 12.64 8 14 C7.01 15.485 7.01 15.485 6 17 C5.34 16.67 4.68 16.34 4 16 C4 12.37 4 8.74 4 5 C2.68 5.33 1.36 5.66 0 6 C0 4.02 0 2.04 0 0 Z " fill="#7FA5B9" transform="translate(27,27)"/>
<path d="M0 0 C3 3 3 3 5 6 C5.556875 6.45375 6.11375 6.9075 6.6875 7.375 C7.120625 7.91125 7.55375 8.4475 8 9 C7.6875 11.6875 7.6875 11.6875 7 14 C4.69 14 2.38 14 0 14 C0 9.38 0 4.76 0 0 Z " fill="#93A8AD" transform="translate(0,34)"/>
<path d="M0 0 C1.98 0 3.96 0 6 0 C6.33 1.65 6.66 3.3 7 5 C1.64347826 9.0173913 1.64347826 9.0173913 -1.3125 8.9375 C-3 8 -3 8 -4 5 C-2.35 4.67 -0.7 4.34 1 4 C0.67 2.68 0.34 1.36 0 0 Z " fill="#997F75" transform="translate(23,18)"/>
<path d="M0 0 C0.66 0 1.32 0 2 0 C2.33 0.66 2.66 1.32 3 2 C3.66 1.67 4.32 1.34 5 1 C5.125 8.75 5.125 8.75 4 11 C2.68 11 1.36 11 0 11 C0 9.68 0 8.36 0 7 C-0.66 7 -1.32 7 -2 7 C-2 6.01 -2 5.02 -2 4 C-1.34 4 -0.68 4 0 4 C0 2.68 0 1.36 0 0 Z " fill="#97A8AD" transform="translate(10,35)"/>
<path d="M0 0 C5.43806647 -0.36253776 5.43806647 -0.36253776 7.9375 1.25 C8.288125 1.8275 8.63875 2.405 9 3 C8.67 4.32 8.34 5.64 8 7 C5.03 6.67 2.06 6.34 -1 6 C-0.67 4.02 -0.34 2.04 0 0 Z " fill="#4B4447" transform="translate(18,6)"/>
<path d="M0 0 C0.66 0.66 1.32 1.32 2 2 C2.99 2 3.98 2 5 2 C6.05404945 5.98196457 5.84098656 8.98195309 5 13 C5.99 13.33 6.98 13.66 8 14 C7.67 14.66 7.34 15.32 7 16 C6.01 15.67 5.02 15.34 4 15 C3.67 12.69 3.34 10.38 3 8 C2.34 8 1.68 8 1 8 C0.67 5.36 0.34 2.72 0 0 Z " fill="#567D91" transform="translate(26,30)"/>
<path d="M0 0 C0.99 0 1.98 0 3 0 C4.1875 2.625 4.1875 2.625 5 6 C3.625 9.375 3.625 9.375 2 12 C1.01 11.67 0.02 11.34 -1 11 C-0.67 7.37 -0.34 3.74 0 0 Z " fill="#B9C8BF" transform="translate(21,36)"/>
<path d="M0 0 C2.31 0 4.62 0 7 0 C7 1.32 7 2.64 7 4 C6.34 4 5.68 4 5 4 C4.67 4.66 4.34 5.32 4 6 C1.9375 6.625 1.9375 6.625 0 7 C0 4.69 0 2.38 0 0 Z " fill="#886D64" transform="translate(15,12)"/>
<path d="M0 0 C1.485 0.99 1.485 0.99 3 2 C3.29296875 5.2578125 3.29296875 5.2578125 3.1875 9.125 C3.16042969 10.40632813 3.13335938 11.68765625 3.10546875 13.0078125 C3.07066406 13.99523438 3.03585938 14.98265625 3 16 C2.34 16 1.68 16 1 16 C0.67 10.72 0.34 5.44 0 0 Z " fill="#537182" transform="translate(18,32)"/>
<path d="M0 0 C0.99 0.33 1.98 0.66 3 1 C3 2.65 3 4.3 3 6 C1.02 6.99 1.02 6.99 -1 8 C-1.33 6.35 -1.66 4.7 -2 3 C-1.34 3 -0.68 3 0 3 C0 2.01 0 1.02 0 0 Z " fill="#325A6C" transform="translate(27,39)"/>
<path d="M0 0 C0 0.99 0 1.98 0 3 C0.66 3.33 1.32 3.66 2 4 C-0.95664519 5.4783226 -3.74229737 5.06032783 -7 5 C-7 4.01 -7 3.02 -7 2 C-2.25 0 -2.25 0 0 0 Z " fill="#92776E" transform="translate(19,17)"/>
<path d="M0 0 C0.66 0 1.32 0 2 0 C2 0.66 2 1.32 2 2 C2.66 2 3.32 2 4 2 C4 3.32 4 4.64 4 6 C5.32 6 6.64 6 8 6 C8 6.66 8 7.32 8 8 C5.69 8 3.38 8 1 8 C1.020625 7.236875 1.04125 6.47375 1.0625 5.6875 C1.12942841 2.89814214 1.12942841 2.89814214 0 0 Z " fill="#7F8F94" transform="translate(6,40)"/>
<path d="M0 0 C1.32 0 2.64 0 4 0 C4 0.99 4 1.98 4 3 C4.66 3 5.32 3 6 3 C6.33 4.65 6.66 6.3 7 8 C6.01 8 5.02 8 4 8 C3.67 6.35 3.34 4.7 3 3 C2.01 2.67 1.02 2.34 0 2 C0 1.34 0 0.68 0 0 Z " fill="#91C4D5" transform="translate(32,30)"/>
<path d="M0 0 C0.33 0.99 0.66 1.98 1 3 C0.67 3.66 0.34 4.32 0 5 C0.66 5 1.32 5 2 5 C2.33 4.34 2.66 3.68 3 3 C3 4.98 3 6.96 3 9 C1.35 9 -0.3 9 -2 9 C-1.125 1.125 -1.125 1.125 0 0 Z " fill="#292C2F" transform="translate(12,10)"/>
<path d="M0 0 C0.98120464 3.05263664 0.98120464 4.94736336 0 8 C-0.99 8 -1.98 8 -3 8 C-3.66 6.35 -4.32 4.7 -5 3 C-3.68 3 -2.36 3 -1 3 C-0.67 2.01 -0.34 1.02 0 0 Z " fill="#A1907F" transform="translate(24,28)"/>
<path d="M0 0 C0 0.66 0 1.32 0 2 C-2.66666667 3.33333333 -5.33333333 4.66666667 -8 6 C-8.33 4.68 -8.66 3.36 -9 2 C-3.375 0 -3.375 0 0 0 Z " fill="#6D5E59" transform="translate(24,20)"/>
<path d="M0 0 C0.99 0 1.98 0 3 0 C3 0.66 3 1.32 3 2 C4.65 1.67 6.3 1.34 8 1 C7.67 1.99 7.34 2.98 7 4 C5.02 4.33 3.04 4.66 1 5 C0.67 3.35 0.34 1.7 0 0 Z " fill="#82746D" transform="translate(16,27)"/>
<path d="M0 0 C0.66 0.33 1.32 0.66 2 1 C2 1.66 2 2.32 2 3 C3.32 2.34 4.64 1.68 6 1 C6.99 1.99 7.98 2.98 9 4 C5.7 4 2.4 4 -1 4 C-0.67 2.68 -0.34 1.36 0 0 Z " fill="#597B87" transform="translate(24,44)"/>
<path d="M0 0 C1.5 1.25 1.5 1.25 3 3 C3 4.32 3 5.64 3 7 C3.66 7.66 4.32 8.32 5 9 C3.35 8.67 1.7 8.34 0 8 C0 5.36 0 2.72 0 0 Z " fill="#ADC0C6" transform="translate(0,34)"/>
<path d="M0 0 C2.475 0.99 2.475 0.99 5 2 C5 3.32 5 4.64 5 6 C2.525 5.01 2.525 5.01 0 4 C0 2.68 0 1.36 0 0 Z " fill="#96A6AB" transform="translate(2,33)"/>
<path d="M0 0 C1.32 0.33 2.64 0.66 4 1 C4.33 2.32 4.66 3.64 5 5 C3.68 5.33 2.36 5.66 1 6 C0.67 4.02 0.34 2.04 0 0 Z " fill="#7499AE" transform="translate(36,38)"/>
<path d="M0 0 C0.66 0.66 1.32 1.32 2 2 C2.99 2 3.98 2 5 2 C5.33 2.99 5.66 3.98 6 5 C4.35 5.33 2.7 5.66 1 6 C0.67 4.02 0.34 2.04 0 0 Z " fill="#6891A7" transform="translate(26,30)"/>
<path d="M0 0 C3.3 0.33 6.6 0.66 10 1 C9.67 1.66 9.34 2.32 9 3 C5.9375 3.625 5.9375 3.625 3 4 C3 3.34 3 2.68 3 2 C2.01 2 1.02 2 0 2 C0 1.34 0 0.68 0 0 Z " fill="#424140" transform="translate(16,25)"/>
<path d="M0 0 C0.99 0 1.98 0 3 0 C3.33 2.64 3.66 5.28 4 8 C2.68 7.67 1.36 7.34 0 7 C0 6.34 0 5.68 0 5 C0.66 5 1.32 5 2 5 C2 4.01 2 3.02 2 2 C1.34 2 0.68 2 0 2 C0 1.34 0 0.68 0 0 Z " fill="#81929B" transform="translate(12,22)"/>
<path d="M0 0 C1.98 0 3.96 0 6 0 C6.33 1.65 6.66 3.3 7 5 C6.34 5 5.68 5 5 5 C5 4.34 5 3.68 5 3 C3.35 2.67 1.7 2.34 0 2 C0 1.34 0 0.68 0 0 Z " fill="#BFA49A" transform="translate(23,18)"/>
</svg>
